<svg id="Layer_1" data-name="Layer 1" xmlns="http://www.w3.org/2000/svg" viewBox="0 0 420 418"><defs><style>.cls-1{fill:none;stroke:#000;stroke-miterlimit:10;stroke-width:15px;}</style></defs><title>fan final</title><path d="M315.3,134.5a86.17,86.17,0,0,0-86.1-86.1H210.1a9.6,9.6,0,0,0-9.6,9.6h0v79.8A86.17,86.17,0,0,0,47.4,192v19a9.6,9.6,0,0,0,9.6,9.6h79.8A86.17,86.17,0,0,0,191,373.7h19.1a9.6,9.6,0,0,0,9.6-9.6h0V284.3a86.17,86.17,0,0,0,153.1-54.2V211a9.6,9.6,0,0,0-9.6-9.6H283.4A86,86,0,0,0,315.3,134.5ZM211.9,239.6a28.68,28.68,0,1,1,26.74-30.5c0,.63.06,1.27.06,1.9A28.76,28.76,0,0,1,211.9,239.6Z"/><circle class="cls-1" cx="210" cy="210.98" r="195.76"/></svg>