<svg id="Layer_2" data-name="Layer 2" xmlns="http://www.w3.org/2000/svg" viewBox="0 0 512 512"><defs><style>.cls-1{stroke:#000;stroke-miterlimit:10;stroke-width:4px;}</style></defs><title>flip</title><path class="cls-1" d="M220.42,148.59l80,52.31V155.81s43.79,7,69.86,27.75c2.68,2.13,5.39,4.2,8.2,6.16,7,4.9,21.19,16.59,29.1,35.06a48.29,48.29,0,0,1,3.35,26.85c-3,17.87-15.27,48.56-63,66.51l67.34,45.1s41.5-25.95,58.47-56.38a20,20,0,0,1,1.89-2.84c2.57-3.12,10.12-15.34,9.35-50.49a54.66,54.66,0,0,0-6.49-24.63,217.71,217.71,0,0,0-23.75-35.23,22.39,22.39,0,0,0-2.34-2.43c-6-5.35-31-26.71-64.59-37.89-3.63-1.21-7.13-2.79-10.65-4.27-12-5-43.44-18.35-77.93-15.52V92.08Z"/><path class="cls-1" d="M181.2,324.51V279.16l127.5,84.08L181.2,446V399.8s-17.26,1.41-88.32-29.2c0,0-40.27-19.88-60.95-52Q30.7,316.76,29.3,315c-3.91-4.88-15.41-22.05-14.63-54.72,0-.87,0-1.76,0-2.64-.08-3.69,1-19,20.28-47.2,22.41-32.8,90.73-68.87,135.55-74.34l3.28,24.6s-22.41-2.74-68.87,31.7c0,0-2.18,2-5.39,5.4-26.08,27.92-26.54,71.62-.15,99.24a63.49,63.49,0,0,0,7.92,7.06,35.11,35.11,0,0,0,4.82,3.17C121.79,312.84,153.83,335.6,181.2,324.51Z"/></svg>