<?xml version="1.0" encoding="utf-8"?>
<!-- Generator: Adobe Illustrator 23.0.2, SVG Export Plug-In . SVG Version: 6.00 Build 0)  -->
<!DOCTYPE svg PUBLIC "-//W3C//DTD SVG 1.1//EN" "http://www.w3.org/Graphics/SVG/1.1/DTD/svg11.dtd" [
	<!ENTITY ns_extend "http://ns.adobe.com/Extensibility/1.0/">
	<!ENTITY ns_ai "http://ns.adobe.com/AdobeIllustrator/10.0/">
	<!ENTITY ns_graphs "http://ns.adobe.com/Graphs/1.0/">
	<!ENTITY ns_vars "http://ns.adobe.com/Variables/1.0/">
	<!ENTITY ns_imrep "http://ns.adobe.com/ImageReplacement/1.0/">
	<!ENTITY ns_sfw "http://ns.adobe.com/SaveForWeb/1.0/">
	<!ENTITY ns_custom "http://ns.adobe.com/GenericCustomNamespace/1.0/">
	<!ENTITY ns_adobe_xpath "http://ns.adobe.com/XPath/1.0/">
]>
<svg version="1.1" id="Layer_1" xmlns:x="&ns_extend;" xmlns:i="&ns_ai;" xmlns:graph="&ns_graphs;"
	 xmlns="http://www.w3.org/2000/svg" xmlns:xlink="http://www.w3.org/1999/xlink" x="0px" y="0px" viewBox="0 0 468.1 306"
	 style="enable-background:new 0 0 468.1 306;" xml:space="preserve">
<style type="text/css">
	.st0{fill:#FFFFFF;}
</style>
<metadata>
	<sfw  xmlns="&ns_sfw;">
		<slices></slices>
		<sliceSourceBounds  bottomLeftOrigin="true" height="306" width="468.1" x="5.4" y="86.5"></sliceSourceBounds>
	</sfw>
</metadata>
<rect width="468.1" height="306"/>
<path class="st0" d="M60.8,126.7c1.5,1.5,3.5,2.3,5.6,2.3h63.9c2.1,0,4.1-0.8,5.6-2.3l23.9-24c1.5-1.5,2.3-3.5,2.3-5.6V57.2
	c0-4.4-3.6-8-8-8H42.4c-4.4,0-8,3.6-8,8v39.9c0,2.1,0.8,4.2,2.3,5.6L60.8,126.7z M50.4,65.2h95.8v28.6L127,113.1H69.7L50.4,93.8
	V65.2z"/>
<path class="st0" d="M80.1,86.8c0.7-0.8,1.3-1.7,1.7-2.6c1.8-4-0.1-8.8-4.1-10.5c-4-1.8-8.8,0.1-10.5,4.1c-0.5,1.1-0.7,2.2-0.7,3.4
	c0,1,0.2,2,0.6,3c0.4,1,1,1.9,1.7,2.6C71.9,89.9,76.9,89.9,80.1,86.8z"/>
<path class="st0" d="M95.3,104.5c3,1.3,6.4,0.6,8.7-1.7c0.7-0.8,1.3-1.7,1.7-2.6c0.4-0.9,0.6-2,0.6-3c0-4.4-3.6-8-8-8
	c-2.1,0-4.2,0.8-5.7,2.3c-1.5,1.5-2.3,3.6-2.3,5.7c0,2.1,0.8,4.2,2.3,5.7C93.4,103.5,94.3,104.1,95.3,104.5z"/>
<path class="st0" d="M116.6,86.8c3.1,3.1,8.2,3.1,11.3,0c0.7-0.8,1.3-1.7,1.7-2.6c0.4-1,0.6-2,0.6-3c0-2.1-0.9-4.1-2.3-5.7
	c-1.9-1.9-4.6-2.7-7.3-2.2c-0.5,0.1-1,0.3-1.4,0.5c-0.5,0.2-1,0.4-1.4,0.7c-0.4,0.3-0.8,0.6-1.2,1c-1.5,1.5-2.3,3.5-2.3,5.7
	c0,1,0.2,2.1,0.6,3C115.3,85.2,115.9,86,116.6,86.8z"/>
<path class="st0" d="M204.1,276.8H236v-16h-24v-23.9h-16v31.9C196.1,273.2,199.6,276.8,204.1,276.8
	C204.1,276.8,204.1,276.8,204.1,276.8z"/>
<path class="st0" d="M435.6,61.2h16V29.2c0-4.4-3.6-8-8-8h-32v16h24L435.6,61.2z"/>
<path class="st0" d="M212.1,37.2h24v-16h-32c-4.4,0-8,3.6-8,8v31.9h16L212.1,37.2z"/>
<path class="st0" d="M435.6,260.8h-24v16h31.9c4.4,0,8-3.6,8-8v-32h-16L435.6,260.8z"/>
<path class="st0" d="M323.9,29.2c-66.1,0-119.8,53.6-119.8,119.8s53.6,119.8,119.8,119.8S443.6,215.2,443.6,149c0,0,0,0,0,0
	C443.6,82.9,390,29.3,323.9,29.2z M391.3,205.2c27.2-32.5,27.2-79.8,0-112.3l11.3-11.3c33.5,38.8,33.5,96.2,0,134.9L391.3,205.2z
	 M363.8,149c0,7.8-2.3,15.5-6.6,22l-11.7-11.7c3.2-6.5,3.2-14.1,0-20.5l11.7-11.7C361.5,133.6,363.8,141.2,363.8,149L363.8,149z
	 M283.9,149c0-7.8,2.3-15.5,6.6-22l11.7,11.7c-3.2,6.5-3.2,14.1,0,20.5L290.6,171C286.2,164.5,283.9,156.8,283.9,149L283.9,149z
	 M315.9,149c0-4.4,3.6-8,8-8s8,3.6,8,8s-3.6,8-8,8S315.9,153.4,315.9,149L315.9,149z M334.1,127.5c-6.5-3.2-14.1-3.2-20.5,0
	l-11.7-11.7c13.3-8.9,30.7-8.9,44,0L334.1,127.5z M313.6,170.6c6.5,3.2,14.1,3.2,20.5,0l11.7,11.7c-13.3,8.9-30.7,8.9-44,0
	L313.6,170.6z M357.3,104.3c-19.8-14.9-47-14.9-66.8,0l-11.4-11.4c26.2-21,63.4-21,89.6,0L357.3,104.3z M279.2,115.6
	c-14.9,19.8-14.9,47,0,66.8l-11.4,11.4c-21-26.2-21-63.4,0-89.6L279.2,115.6z M290.5,193.7c19.8,14.9,47,14.9,66.8,0l11.4,11.4
	c-26.2,21-63.4,21-89.6,0L290.5,193.7z M368.6,182.4c14.9-19.8,14.9-47,0-66.8l11.4-11.4c21,26.2,21,63.4,0,89.6L368.6,182.4z
	 M391.3,70.3L380,81.6c-32.5-27.2-79.8-27.2-112.3,0l-11.3-11.3C295.2,36.9,352.6,36.9,391.3,70.3z M245.1,81.6l11.3,11.3
	c-27.2,32.5-27.2,79.8,0,112.3l-11.3,11.3C211.7,177.7,211.7,120.3,245.1,81.6z M256.4,227.7l11.3-11.2c32.5,27.2,79.8,27.2,112.3,0
	l11.3,11.3C352.5,261.2,295.2,261.2,256.4,227.7z"/>
<rect x="34.5" y="220.9" class="st0" width="123.7" height="16"/>
</svg>
